<svg width="92" height="92" xmlns="http://www.w3.org/2000/svg">
 <defs>
  <clipPath id="a">
   <path d="m0,0.113l91.887,0l0,91.887l-91.887,0l0,-91.887zm0,0" id="svg_1"/>
  </clipPath>
 </defs>
 <g>
  <title>Layer 1</title>
  <path d="m112.156,44.965l-40.12,-40.117a5.913,5.913 0 0 0 -8.368,0l-8.332,8.332l10.566,10.566a7.03,7.03 0 0 1 7.23,1.684a7.043,7.043 0 0 1 1.673,7.277l10.183,10.184a7.026,7.026 0 0 1 7.278,1.672a7.04,7.04 0 0 1 0,9.957a7.045,7.045 0 0 1 -9.961,0a7.038,7.038 0 0 1 -1.532,-7.66l-9.5,-9.497l0,24.997a7.04,7.04 0 0 1 1.86,11.29a7.04,7.04 0 0 1 -9.957,0a7.04,7.04 0 0 1 0,-9.958a7.034,7.034 0 0 1 2.308,-1.539l0,-25.227a7.001,7.001 0 0 1 -2.308,-1.535a7.049,7.049 0 0 1 -1.516,-7.7l-10.418,-10.418l-27.508,27.504a5.918,5.918 0 0 0 0,8.371l40.121,40.122a5.92,5.92 0 0 0 8.368,0l39.933,-39.934a5.925,5.925 0 0 0 0,-8.371" fill-rule="nonzero" fill="#100f0d" id="svg_3"/>
  <defs transform="translate(11, -26) translate(-2, 4) translate(-4, -6) translate(-121, 8) translate(2) translate(81, 4) translate(-63.1851) translate(0, -0.394698)">
   <clipPath id="svg_6">
    <path id="svg_8" d="m51.81495,10.3953l25,0l0,68.21l-25,0l0,-68.21zm0,0"/>
   </clipPath>
   <clipPath id="svg_5">
    <path id="svg_9" d="m75.81495,18.6053l35.371,0l0,60l-35.371,0l0,-60zm0,0"/>
   </clipPath>
   <clipPath id="svg_4">
    <path id="svg_10" d="m-96.18505,-15.6047l92,0l0,91.21l-92,0l0,-91.21zm0,0"/>
   </clipPath>
  </defs>
  <path id="svg_11" d="m22.68595,33.4413c-4.785,0 -8.351,2.352 -8.351,8.008c0,4.261 2.347,7.222 8.093,7.222c4.871,0 8.18,-2.867 8.18,-7.398c0,-5.133 -2.961,-7.832 -7.922,-7.832zm-9.57,39.95c-1.133,1.39 -2.262,2.87 -2.262,4.612c0,3.48 4.434,4.524 10.527,4.524c5.051,0 11.926,-0.352 11.926,-5.043c0,-2.793 -3.308,-2.965 -7.488,-3.227l-12.703,-0.866zm25.761,-39.688c1.563,2.004 3.22,4.789 3.22,8.793c0,9.656 -7.571,15.316 -18.536,15.316c-2.789,0 -5.312,-0.348 -6.879,-0.785l-2.87,4.613l8.526,0.52c15.059,0.96 23.934,1.398 23.934,12.968c0,10.008 -8.789,15.665 -23.934,15.665c-15.75,0 -21.757,-4.004 -21.757,-10.88c0,-3.917 1.742,-6 4.789,-8.878c-2.875,-1.211 -3.828,-3.387 -3.828,-5.739c0,-1.914 0.953,-3.656 2.523,-5.312c1.566,-1.652 3.305,-3.305 5.395,-5.219c-4.262,-2.09 -7.485,-6.617 -7.485,-13.058c0,-10.008 6.613,-16.88 19.93,-16.88c3.742,0 6.004,0.344 8.008,0.872l16.972,0l0,7.394l-8.007,0.61" fill-rule="nonzero" fill="#f03c2e"/>
 </g>
</svg>